<?xml version="1.0" standalone="no"?>
<!DOCTYPE svg PUBLIC "-//W3C//DTD SVG 20010904//EN"
 "http://www.w3.org/TR/2001/REC-SVG-20010904/DTD/svg10.dtd">
<svg version="1.0" xmlns="http://www.w3.org/2000/svg"
 width="500.000000pt" height="500.000000pt" viewBox="0 0 500.000000 500.000000"
 preserveAspectRatio="xMidYMid meet">
<metadata>
Created by potrace 1.16, written by Peter Selinger 2001-2019
</metadata>
<g transform="translate(0.000000,500.000000) scale(0.100000,-0.100000)"
fill="#000000" stroke="none">
<path d="M1997 3636 c-61 -23 -114 -65 -151 -120 -46 -69 -59 -119 -55 -208 4
-61 11 -88 41 -149 43 -86 71 -116 152 -158 83 -44 151 -43 238 2 224 118 221
502 -6 619 -51 26 -167 34 -219 14z m145 -101 c38 -9 114 -94 127 -141 39
-142 -27 -298 -135 -320 -117 -23 -234 107 -234 262 0 62 4 76 30 116 17 26
42 53 55 62 28 18 93 35 115 30 8 -2 27 -6 42 -9z"/>
<path d="M2707 3639 c-77 -18 -144 -81 -191 -179 -28 -59 -31 -74 -31 -160 0
-80 4 -103 24 -145 36 -72 88 -124 156 -157 147 -69 299 -2 382 171 34 69 37
84 38 161 0 78 -3 91 -35 154 -20 39 -52 83 -75 103 -65 55 -168 76 -268 52z
m150 -110 c146 -55 166 -283 35 -401 -48 -44 -75 -52 -143 -46 -79 8 -128 64
-147 168 -12 67 0 156 29 205 42 71 145 105 226 74z"/>
<path d="M1440 3133 c-68 -25 -145 -109 -166 -180 -58 -201 116 -436 325 -437
79 0 129 22 185 85 60 66 80 120 81 219 0 99 -18 142 -92 221 -87 93 -226 131
-333 92z m161 -103 c49 -14 113 -71 139 -124 62 -129 -14 -286 -138 -286 -120
0 -231 119 -232 248 0 127 101 198 231 162z"/>
<path d="M3250 3136 c-79 -30 -93 -38 -139 -81 -87 -82 -122 -218 -86 -341 23
-82 107 -165 189 -189 115 -34 259 27 335 141 125 189 74 404 -109 469 -52 18
-143 19 -190 1z m187 -122 c16 -12 38 -38 51 -60 56 -96 -9 -262 -123 -315
-126 -58 -245 31 -245 184 0 76 57 167 124 198 55 26 154 22 193 -7z"/>
<path d="M2355 2817 c-94 -24 -131 -55 -347 -287 -300 -321 -326 -366 -316
-541 7 -113 44 -195 125 -274 79 -78 147 -108 254 -113 99 -4 148 12 222 72
54 44 89 57 154 57 57 0 99 -17 156 -67 79 -66 233 -82 344 -34 70 30 164 129
206 217 30 64 32 75 32 178 0 139 -13 166 -146 313 -283 313 -422 448 -484
472 -41 16 -150 19 -200 7z m181 -117 c66 -32 452 -437 509 -534 49 -84 45
-221 -11 -320 -30 -54 -45 -67 -118 -105 -98 -52 -187 -40 -284 37 -59 46
-103 62 -178 62 -75 0 -151 -27 -224 -78 -59 -42 -71 -47 -132 -50 -83 -5
-155 24 -216 89 -62 64 -85 133 -80 239 2 47 11 97 19 112 20 38 142 178 309
355 115 122 157 160 204 183 72 37 140 40 202 10z"/>
</g>
</svg>
